<svg width="24" height="24" viewBox="0 0 24 24" fill="none" xmlns="http://www.w3.org/2000/svg">
<path fill-rule="evenodd" clip-rule="evenodd" d="M18.253 2.478C20.3136 1.61941 22.3809 3.68663 21.5223 5.74723L15.5988 19.9637C14.4403 22.7439 10.3655 22.274 9.87034 19.303L9.13133 14.8689L4.69725 14.1299C1.72626 13.6348 1.25632 9.55996 4.0366 8.40151L18.253 2.478ZM19.6761 4.978C19.8478 4.56588 19.4344 4.15243 19.0223 4.32415L4.80583 10.2477C3.87907 10.6338 4.03572 11.9921 5.02605 12.1571L9.46013 12.8962C10.3031 13.0366 10.9636 13.6972 11.1041 14.5401L11.8431 18.9742C12.0082 19.9646 13.3665 20.1212 13.7526 19.1944L19.6761 4.978Z" fill="#B1B5C4"/>
</svg>
