<svg width="25" height="24" viewBox="0 0 25 24" fill="none" xmlns="http://www.w3.org/2000/svg">
<path fill-rule="evenodd" clip-rule="evenodd" d="M19.334 6H5.33398C4.7817 6 4.33398 6.44772 4.33398 7V19C4.33398 19.5523 4.7817 20 5.33398 20H19.334C19.8863 20 20.334 19.5523 20.334 19V7C20.334 6.44771 19.8863 6 19.334 6ZM5.33398 4C3.67713 4 2.33398 5.34315 2.33398 7V19C2.33398 20.6569 3.67713 22 5.33398 22H19.334C20.9908 22 22.334 20.6569 22.334 19V7C22.334 5.34315 20.9908 4 19.334 4H5.33398Z" fill="#B1B5C4"/>
<path fill-rule="evenodd" clip-rule="evenodd" d="M10.334 12C9.7817 12 9.33398 12.4477 9.33398 13C9.33398 13.5523 9.7817 14 10.334 14H17.334C17.8863 14 18.334 13.5523 18.334 13C18.334 12.4477 17.8863 12 17.334 12H10.334ZM7.33398 16C6.7817 16 6.33398 16.4477 6.33398 17C6.33398 17.5523 6.7817 18 7.33398 18H13.334C13.8863 18 14.334 17.5523 14.334 17C14.334 16.4477 13.8863 16 13.334 16H7.33398Z" fill="#B1B5C4"/>
<path fill-rule="evenodd" clip-rule="evenodd" d="M7.33398 2C6.7817 2 6.33398 2.44772 6.33398 3V7C6.33398 7.55228 6.7817 8 7.33398 8C7.88627 8 8.33398 7.55228 8.33398 7V3C8.33398 2.44772 7.88627 2 7.33398 2ZM17.334 2C16.7817 2 16.334 2.44772 16.334 3V7C16.334 7.55228 16.7817 8 17.334 8C17.8863 8 18.334 7.55228 18.334 7V3C18.334 2.44772 17.8863 2 17.334 2Z" fill="#B1B5C4"/>
</svg>
