<svg width="33" height="32" viewBox="0 0 33 32" fill="none" xmlns="http://www.w3.org/2000/svg">
<path fill-rule="evenodd" clip-rule="evenodd" d="M23.666 10H9.66602C9.11373 10 8.66602 10.4477 8.66602 11V23C8.66602 23.5523 9.11373 24 9.66602 24H23.666C24.2183 24 24.666 23.5523 24.666 23V11C24.666 10.4477 24.2183 10 23.666 10ZM9.66602 8C8.00916 8 6.66602 9.34315 6.66602 11V23C6.66602 24.6569 8.00916 26 9.66602 26H23.666C25.3229 26 26.666 24.6569 26.666 23V11C26.666 9.34315 25.3229 8 23.666 8H9.66602Z" fill="#B1B5C4"/>
<path fill-rule="evenodd" clip-rule="evenodd" d="M14.666 16C14.1137 16 13.666 16.4477 13.666 17C13.666 17.5523 14.1137 18 14.666 18H21.666C22.2183 18 22.666 17.5523 22.666 17C22.666 16.4477 22.2183 16 21.666 16H14.666ZM11.666 20C11.1137 20 10.666 20.4477 10.666 21C10.666 21.5523 11.1137 22 11.666 22H17.666C18.2183 22 18.666 21.5523 18.666 21C18.666 20.4477 18.2183 20 17.666 20H11.666Z" fill="#B1B5C4"/>
<path fill-rule="evenodd" clip-rule="evenodd" d="M11.666 6C11.1137 6 10.666 6.44772 10.666 7V11C10.666 11.5523 11.1137 12 11.666 12C12.2183 12 12.666 11.5523 12.666 11V7C12.666 6.44772 12.2183 6 11.666 6ZM21.666 6C21.1137 6 20.666 6.44772 20.666 7V11C20.666 11.5523 21.1137 12 21.666 12C22.2183 12 22.666 11.5523 22.666 11V7C22.666 6.44772 22.2183 6 21.666 6Z" fill="#B1B5C4"/>
</svg>
