<svg width="106" height="36" viewBox="0 0 106 36" fill="none" xmlns="http://www.w3.org/2000/svg">
<g clip-path="url(#clip0_7744_1379)">
<path d="M14.9027 1.19271C16.819 0.0863382 19.1799 0.0863377 21.0962 1.19271L31.0066 6.91444C32.9229 8.02081 34.1033 10.0655 34.1033 12.2782V23.7217C34.1033 25.9344 32.9229 27.9791 31.0066 29.0855L21.0962 34.8072C19.1799 35.9136 16.819 35.9136 14.9027 34.8072L4.99235 29.0855C3.07606 27.9791 1.89558 25.9344 1.89558 23.7217V12.2782C1.89558 10.0655 3.07606 8.02081 4.99235 6.91444L14.9027 1.19271Z" fill="url(#paint0_linear_7744_1379)"/>
<mask id="mask0_7744_1379" style="mask-type:alpha" maskUnits="userSpaceOnUse" x="1" y="0" width="34" height="36">
<path d="M14.9027 1.19271C16.819 0.0863382 19.1799 0.0863377 21.0962 1.19271L31.0066 6.91444C32.9229 8.02081 34.1033 10.0655 34.1033 12.2782V23.7217C34.1033 25.9344 32.9229 27.9791 31.0066 29.0855L21.0962 34.8072C19.1799 35.9136 16.819 35.9136 14.9027 34.8072L4.99235 29.0855C3.07606 27.9791 1.89558 25.9344 1.89558 23.7217V12.2782C1.89558 10.0655 3.07606 8.02081 4.99235 6.91444L14.9027 1.19271Z" fill="#83E1E1"/>
</mask>
<g mask="url(#mask0_7744_1379)">
<path d="M7.06987 14.0314L-3.55766 20.6564L-12.7647 26.8436C-13.1071 27.0737 -13.3125 27.4592 -13.3125 27.8717V57.2177C-13.3125 57.9018 -12.7579 58.4564 -12.0738 58.4564H49.2036C49.8877 58.4564 50.4423 57.9018 50.4423 57.2177V31.0056C50.4423 30.5813 50.2251 30.1865 49.8667 29.9593L18.8472 10.3004C18.3574 9.98998 17.7178 10.0609 17.3079 10.4711L11.9644 15.8188C11.4805 16.303 10.6957 16.303 10.2119 15.8188L8.60139 14.2071C8.19394 13.7993 7.55906 13.7265 7.06987 14.0314Z" fill="url(#paint1_linear_7744_1379)"/>
<path d="M7.45467 16.875L1.125 21.975H5.97115C6.44588 21.975 8.21291 24.575 9.03709 25.875L10.125 19.775L7.45467 16.875Z" fill="url(#paint2_linear_7744_1379)"/>
<path d="M14.6468 19.125L18 13.5L31.5 21.375L28.408 22.7465L20.8125 22.5L13.5 29.25L16.875 21.375L14.6468 19.125Z" fill="url(#paint3_linear_7744_1379)"/>
</g>
</g>
<path d="M53.9119 15.647H51.2929V27.5H47.4589V15.647H45.7579V12.542H47.4589V11.786C47.4589 9.95 47.9809 8.6 49.0249 7.736C50.0689 6.872 51.6439 6.467 53.7499 6.521V9.707C52.8319 9.689 52.1929 9.842 51.8329 10.166C51.4729 10.49 51.2929 11.075 51.2929 11.921V12.542H53.9119V15.647ZM60.1415 7.52V27.5H56.3615V7.52H60.1415ZM77.7812 19.697C77.7812 20.237 77.7452 20.723 77.6732 21.155H66.7382C66.8282 22.235 67.2062 23.081 67.8722 23.693C68.5382 24.305 69.3572 24.611 70.3292 24.611C71.7332 24.611 72.7322 24.008 73.3262 22.802H77.4032C76.9712 24.242 76.1432 25.43 74.9192 26.366C73.6952 27.284 72.1922 27.743 70.4102 27.743C68.9702 27.743 67.6742 27.428 66.5222 26.798C65.3882 26.15 64.4972 25.241 63.8492 24.071C63.2192 22.901 62.9042 21.551 62.9042 20.021C62.9042 18.473 63.2192 17.114 63.8492 15.944C64.4792 14.774 65.3612 13.874 66.4952 13.244C67.6292 12.614 68.9342 12.299 70.4102 12.299C71.8322 12.299 73.1012 12.605 74.2172 13.217C75.3512 13.829 76.2242 14.702 76.8362 15.836C77.4662 16.952 77.7812 18.239 77.7812 19.697ZM73.8662 18.617C73.8482 17.645 73.4972 16.871 72.8132 16.295C72.1292 15.701 71.2922 15.404 70.3022 15.404C69.3662 15.404 68.5742 15.692 67.9262 16.268C67.2962 16.826 66.9092 17.609 66.7652 18.617H73.8662ZM94.4452 19.697C94.4452 20.237 94.4092 20.723 94.3372 21.155H83.4022C83.4922 22.235 83.8702 23.081 84.5362 23.693C85.2022 24.305 86.0212 24.611 86.9932 24.611C88.3972 24.611 89.3962 24.008 89.9902 22.802H94.0672C93.6352 24.242 92.8072 25.43 91.5832 26.366C90.3592 27.284 88.8562 27.743 87.0742 27.743C85.6342 27.743 84.3382 27.428 83.1862 26.798C82.0522 26.15 81.1612 25.241 80.5132 24.071C79.8832 22.901 79.5682 21.551 79.5682 20.021C79.5682 18.473 79.8832 17.114 80.5132 15.944C81.1432 14.774 82.0252 13.874 83.1592 13.244C84.2932 12.614 85.5982 12.299 87.0742 12.299C88.4962 12.299 89.7652 12.605 90.8812 13.217C92.0152 13.829 92.8882 14.702 93.5002 15.836C94.1302 16.952 94.4452 18.239 94.4452 19.697ZM90.5302 18.617C90.5122 17.645 90.1612 16.871 89.4772 16.295C88.7932 15.701 87.9562 15.404 86.9662 15.404C86.0302 15.404 85.2382 15.692 84.5902 16.268C83.9602 16.826 83.5732 17.609 83.4292 18.617H90.5302ZM101.605 15.647V22.883C101.605 23.387 101.722 23.756 101.956 23.99C102.208 24.206 102.622 24.314 103.198 24.314H104.953V27.5H102.577C99.3913 27.5 97.7983 25.952 97.7983 22.856V15.647H96.0163V12.542H97.7983V8.843H101.605V12.542H104.953V15.647H101.605Z" fill="#23262F"/>
<defs>
<linearGradient id="paint0_linear_7744_1379" x1="17.9995" y1="-0.595215" x2="17.9995" y2="36.5951" gradientUnits="userSpaceOnUse">
<stop stop-color="#22AFFF"/>
<stop offset="1" stop-color="#1D41FF"/>
</linearGradient>
<linearGradient id="paint1_linear_7744_1379" x1="18.5649" y1="9.76929" x2="18.5649" y2="58.4564" gradientUnits="userSpaceOnUse">
<stop stop-color="#1B3573"/>
<stop offset="1" stop-color="#131E39"/>
</linearGradient>
<linearGradient id="paint2_linear_7744_1379" x1="9.5625" y1="18" x2="-3.375" y2="37.125" gradientUnits="userSpaceOnUse">
<stop stop-color="#FCFCFD"/>
<stop offset="1" stop-color="white" stop-opacity="0"/>
</linearGradient>
<linearGradient id="paint3_linear_7744_1379" x1="18.5625" y1="13.5" x2="30.375" y2="56.25" gradientUnits="userSpaceOnUse">
<stop stop-color="white"/>
<stop offset="1" stop-color="#192E5F"/>
</linearGradient>
<clipPath id="clip0_7744_1379">
<rect width="36" height="36" fill="white"/>
</clipPath>
</defs>
</svg>
